name rise30.2954peak35.7071fall66.7804.mot
datacolumns 19
datarows 32
range 21.18991900000000 21.24159400000000
endheader
time	ground_force1_vx	ground_force1_vy	ground_force1_vz	ground_force1_px	ground_force1_py	ground_force1_pz	ground_force2_vx	ground_force2_vy	ground_force2_vz	ground_force2_px	ground_force2_py	ground_force2_pz	ground_torque1_x	ground_torque1_y	ground_torque1_z	ground_torque2_x	ground_torque2_y	ground_torque2_z	
21.18991900000000	-54.05784200000000	836.00594300000000	56.81206500000000	0.05526800000000	0.00000000000000	0.12972400000000	-2.40203800000000	15.42510700000000	5.02354700000000	0.00000000000000	0.00000000000000	0.00000000000000	0.00000000000000	19.71705600000000	0.00000000000000	0.00000000000000	1.58662000000000	0.00000000000000	
21.19158700000000	-54.46398300000000	834.72988199999998	56.82654100000000	0.05458800000000	0.00000000000000	0.12969200000000	-3.06737000000000	20.47188400000000	6.49669700000000	0.00000000000000	0.00000000000000	0.00000000000000	0.00000000000000	19.67668400000000	0.00000000000000	0.00000000000000	2.05448700000000	0.00000000000000	
21.19325600000000	-54.89084300000000	833.32715599999995	56.82522000000000	0.05391100000000	0.00000000000000	0.12965500000000	-3.75210300000000	25.94095500000000	8.04348900000000	0.29562300000000	0.00000000000000	-0.04554800000000	0.00000000000000	19.64090300000000	0.00000000000000	0.00000000000000	4.75363900000000	0.00000000000000	
21.19492100000000	-55.33895100000000	831.79542500000002	56.80724200000000	0.05323600000000	0.00000000000000	0.12961500000000	-4.43248600000000	31.71387400000000	9.61868200000000	0.29839800000000	0.00000000000000	-0.04587700000000	0.00000000000000	19.60990200000000	0.00000000000000	0.00000000000000	5.71597000000000	0.00000000000000	
21.19659200000000	-55.80874900000000	830.13235099999997	56.77176000000000	0.05256400000000	0.00000000000000	0.12957100000000	-5.08481200000000	37.66665500000000	11.17664900000000	0.30095300000000	0.00000000000000	-0.04619800000000	0.00000000000000	19.58385200000000	0.00000000000000	0.00000000000000	6.67625000000000	0.00000000000000	
21.19825900000000	-56.30058600000000	828.33559900000000	56.71793300000000	0.05189400000000	0.00000000000000	0.12952200000000	-5.68711000000000	43.67985900000000	12.67481100000000	0.30331800000000	0.00000000000000	-0.04651300000000	0.00000000000000	19.56289900000000	0.00000000000000	0.00000000000000	7.60850100000000	0.00000000000000	
21.19992300000000	-56.81471500000000	826.40283899999997	56.64493500000000	0.05122700000000	0.00000000000000	0.12946900000000	-6.22056300000000	49.64746800000000	14.07654000000000	0.30551400000000	0.00000000000000	-0.04682300000000	0.00000000000000	19.54716600000000	0.00000000000000	0.00000000000000	8.49005700000000	0.00000000000000	
21.20159300000000	-57.35128900000000	824.33174299999996	56.55195500000000	0.05056200000000	0.00000000000000	0.12941200000000	-6.67050600000000	55.48361100000000	15.35324800000000	0.30756200000000	0.00000000000000	-0.04713000000000	0.00000000000000	19.53675000000000	0.00000000000000	0.00000000000000	9.30289800000000	0.00000000000000	
21.20326000000000	-57.91035900000000	822.11999300000002	56.43820300000000	0.04990100000000	0.00000000000000	0.12935000000000	-7.02695400000000	61.12668200000000	16.48551900000000	0.30947600000000	0.00000000000000	-0.04743300000000	0.00000000000000	19.53172500000000	0.00000000000000	0.00000000000000	10.03443800000000	0.00000000000000	
21.20492500000000	-58.49186600000000	819.76527199999998	56.30290800000000	0.04924200000000	0.00000000000000	0.12928400000000	-7.28466900000000	66.54083300000001	17.46332100000000	0.31127100000000	0.00000000000000	-0.04773500000000	0.00000000000000	19.53213700000000	0.00000000000000	0.00000000000000	10.67773700000000	0.00000000000000	
21.20658900000000	-59.09564500000000	817.26527499999997	56.14532200000000	0.04858600000000	0.00000000000000	0.12921300000000	-7.44283700000000	71.71510100000000	18.28541100000000	0.31295700000000	0.00000000000000	-0.04803600000000	0.00000000000000	19.53800700000000	0.00000000000000	0.00000000000000	11.23121400000000	0.00000000000000	
21.20825700000000	-59.72141700000000	814.61770899999999	55.96472600000000	0.04793200000000	0.00000000000000	0.12913800000000	-7.50443700000000	76.66063500000000	18.95811800000000	0.31454400000000	0.00000000000000	-0.04833600000000	0.00000000000000	19.54932500000000	0.00000000000000	0.00000000000000	11.69796900000000	0.00000000000000	
21.20992600000000	-60.36878800000000	811.82029199999999	55.76043000000000	0.04728200000000	0.00000000000000	0.12905800000000	-7.47541400000000	81.40658300000000	19.49371600000000	0.31604100000000	0.00000000000000	-0.04863600000000	0.00000000000000	19.56605600000000	0.00000000000000	0.00000000000000	12.08483300000000	0.00000000000000	
21.21158700000000	-61.03724900000000	808.87076300000001	55.53177500000000	0.04663400000000	0.00000000000000	0.12897300000000	-7.36375400000000	85.99521000000000	19.90858000000000	0.31745400000000	0.00000000000000	-0.04893500000000	0.00000000000000	19.58813600000000	0.00000000000000	0.00000000000000	12.40126900000000	0.00000000000000	
21.21325900000000	-61.72616900000000	805.76688000000001	55.27813900000000	0.04598800000000	0.00000000000000	0.12888400000000	-7.17856200000000	90.47679200000000	20.22133200000000	0.31878900000000	0.00000000000000	-0.04923500000000	0.00000000000000	19.61547200000000	0.00000000000000	0.00000000000000	12.65824600000000	0.00000000000000	
21.21492700000000	-62.43479900000000	802.50642900000003	54.99893700000000	0.04534500000000	0.00000000000000	0.12879000000000	-6.92920800000000	94.90472699999999	20.45111900000000	0.32005200000000	0.00000000000000	-0.04953600000000	0.00000000000000	19.64793900000000	0.00000000000000	0.00000000000000	12.86718500000000	0.00000000000000	
21.21658900000000	-63.16226900000000	799.08722599999999	54.69362300000000	0.04470400000000	0.00000000000000	0.12869100000000	-6.62460200000000	99.33123100000000	20.61614200000000	0.32124700000000	0.00000000000000	-0.04983800000000	0.00000000000000	19.68538700000000	0.00000000000000	0.00000000000000	13.03904100000000	0.00000000000000	
21.21825800000000	-63.90758300000000	795.50712299999998	54.36169600000000	0.04406500000000	0.00000000000000	0.12858700000000	-6.27263700000000	103.80384599999999	20.73250400000000	0.32237800000000	0.00000000000000	-0.05014000000000	0.00000000000000	19.72763300000000	0.00000000000000	0.00000000000000	13.18358000000000	0.00000000000000	
21.21992100000000	-64.66962599999999	791.76401499999997	54.00270200000000	0.04342800000000	0.00000000000000	0.12847900000000	-5.87980500000000	108.36289200000000	20.81341900000000	0.32344800000000	0.00000000000000	-0.05044300000000	0.00000000000000	19.77446600000000	0.00000000000000	0.00000000000000	13.30886800000000	0.00000000000000	
21.22158700000000	-65.44715700000000	787.85584400000005	53.61623300000000	0.04279300000000	0.00000000000000	0.12836600000000	-5.45099100000000	113.03989000000000	20.86877400000000	0.32446000000000	0.00000000000000	-0.05074800000000	0.00000000000000	19.82564400000000	0.00000000000000	0.00000000000000	13.42097700000000	0.00000000000000	
21.22326200000000	-66.23881500000000	783.78061000000002	53.20193500000000	0.04216000000000	0.00000000000000	0.12824800000000	-4.98943100000000	117.85690300000000	20.90500800000000	0.32541600000000	0.00000000000000	-0.05105400000000	0.00000000000000	19.88089900000000	0.00000000000000	0.00000000000000	13.52389200000000	0.00000000000000	
21.22492600000000	-67.04311600000000	779.53637200000003	52.75950600000000	0.04152700000000	0.00000000000000	0.12812600000000	-4.49679600000000	122.82667600000001	20.92527500000000	0.32631900000000	0.00000000000000	-0.05136100000000	0.00000000000000	19.93993100000000	0.00000000000000	0.00000000000000	13.61958600000000	0.00000000000000	
21.22659200000000	-67.85845500000001	775.12126300000000	52.28870000000000	0.04089600000000	0.00000000000000	0.12799900000000	-3.97339000000000	127.95341999999999	20.92981600000000	0.32717100000000	0.00000000000000	-0.05166900000000	0.00000000000000	20.00241400000000	0.00000000000000	0.00000000000000	13.70824100000000	0.00000000000000	
21.22825800000000	-68.68311100000000	770.53349400000002	51.78933200000000	0.04026600000000	0.00000000000000	0.12786800000000	-3.41841100000000	133.23406600000001	20.91647400000000	0.32797200000000	0.00000000000000	-0.05197900000000	0.00000000000000	20.06799100000000	0.00000000000000	0.00000000000000	13.78854900000000	0.00000000000000	
21.22992300000000	-69.51524600000000	765.77136399999995	51.26127600000000	0.03963500000000	0.00000000000000	0.12773200000000	-2.83025300000000	138.65979899999999	20.88129700000000	0.32872500000000	0.00000000000000	-0.05228900000000	0.00000000000000	20.13628200000000	0.00000000000000	0.00000000000000	13.85808000000000	0.00000000000000	
21.23159300000000	-70.35290800000000	760.83327199999997	50.70447000000000	0.03900500000000	0.00000000000000	0.12759100000000	-2.20681400000000	144.21771699999999	20.81915900000000	0.32943000000000	0.00000000000000	-0.05260100000000	0.00000000000000	20.20687900000000	0.00000000000000	0.00000000000000	13.91365600000000	0.00000000000000	
21.23325800000000	-71.19403699999999	755.71772599999997	50.11891600000000	0.03837500000000	0.00000000000000	0.12744600000000	-1.54579200000000	149.89246600000001	20.72435000000000	0.33008800000000	0.00000000000000	-0.05291400000000	0.00000000000000	20.27934800000000	0.00000000000000	0.00000000000000	13.95172500000000	0.00000000000000	
21.23492700000000	-72.03646800000000	750.42335700000001	49.50468300000000	0.03774400000000	0.00000000000000	0.12729600000000	-0.84493800000000	155.66772800000001	20.59110500000000	0.33070100000000	0.00000000000000	-0.05322800000000	0.00000000000000	20.35323300000000	0.00000000000000	0.00000000000000	13.96868200000000	0.00000000000000	
21.23659400000000	-72.87793400000000	744.94892700000003	48.86190800000000	0.03711200000000	0.00000000000000	0.12714300000000	-0.10227300000000	161.52748900000000	20.41403800000000	0.33126800000000	0.00000000000000	-0.05354300000000	0.00000000000000	20.42805500000000	0.00000000000000	0.00000000000000	13.96114300000000	0.00000000000000	
21.23826100000000	-73.71607299999999	739.29334900000003	48.19079800000000	0.03647900000000	0.00000000000000	0.12698500000000	0.68375700000000	167.45704000000001	20.18847300000000	0.33179100000000	0.00000000000000	-0.05385900000000	0.00000000000000	20.50331100000000	0.00000000000000	0.00000000000000	13.92615400000000	0.00000000000000	
21.23993000000000	-74.54843099999999	733.45569399999999	47.49162700000000	0.03584400000000	0.00000000000000	0.12682300000000	1.51418000000000	173.44367399999999	19.91065700000000	0.33227000000000	0.00000000000000	-0.05417500000000	0.00000000000000	20.57848100000000	0.00000000000000	0.00000000000000	13.86132900000000	0.00000000000000	
21.24159400000000	-75.37247300000000	727.43520999999998	46.76474500000000	0.03520700000000	0.00000000000000	0.12665700000000	2.38944700000000	179.47710200000000	19.57788400000000	0.33270500000000	0.00000000000000	-0.05449100000000	0.00000000000000	20.65302600000000	0.00000000000000	0.00000000000000	13.76492800000000	0.00000000000000	
